# xmcd CD database file
#
# Track frame offsets:
#	150
#	14345
#	28867
#	45180
#	64395
#	83725
#	102842
#	118667
#	133652
#	149795
#	164615
#	181790
#
# Disc length: 2623 seconds
#
# Revision: 0
# Processed by: cddbd v1.4PL0 Copyright (c) Steve Scherf et al.
# Submitted via: Feurio! 1.65 - http://www.feurio.com
#
DISCID=a50a3d0c
DTITLE=Rex Gildo - Die Grossen Erfolge
DYEAR=1991
DGENRE=Schlager
TTITLE0=Fiesta Mexicana
TTITLE1=Marie, der letzte Tanz ist nur für dich
TTITLE2=Hasta la vista
TTITLE3=Der letzte Sirtaki
TTITLE4=Du, wenn ich je deine Liebe verlier'
TTITLE5=Wenn du mich brauchst
TTITLE6=Andrea
TTITLE7=Margarita
TTITLE8=Toujours amour
TTITLE9=Unvergeßlich
TTITLE10=Tatjana
TTITLE11=Verrückt, verliebt und atemlos
EXTD=Pilz-1991
EXTT0=
EXTT1=
EXTT2=
EXTT3=
EXTT4=
EXTT5=
EXTT6=
EXTT7=
EXTT8=
EXTT9=
EXTT10=
EXTT11=
PLAYORDER=
